<?xml version="1.0" encoding="UTF-8"?>
<svg width="31pt" version="1.1" xmlns="http://www.w3.org/2000/svg" height="31pt" viewBox="0 0 31 31" xmlns:xlink="http://www.w3.org/1999/xlink" >
 <desc>Amplifier (10-15-01)</desc>
 <defs/>
 <g id="Fondo" >
  <path style="fill:#161413; fill-rule:nonzero;stroke:none;" id=" GlTimesNewRomanPSMT65" d="M15.9553 16.144 L6.86031 16.144 L5.2665 19.8472 C5.2665 19.8472 4.67775 21.2143 4.67775 21.8887 C4.67775 21.8887 4.67775 22.4252 5.18834 22.8322 C5.18834 22.8322 5.69946 23.2387 7.39748 23.3599 L7.39748 24 L0 24 L0 23.3599 C0 23.3599 1.4724 23.1002 1.90592 22.685 C1.90592 22.685 2.78903 21.8544 3.86339 19.3106 L12.1268 0 L12.7333 0 L20.9102 19.5183 C20.9102 19.5183 21.8976 21.8715 22.703 22.5725 C22.703 22.5725 23.5085 23.273 24.9466 23.3599 L24.9466 24 L15.6781 24 L15.6781 23.3599 C15.6781 23.3599 17.0818 23.2907 17.5751 22.8926 C17.5751 22.8926 18.0691 22.4945 18.0691 21.9236 C18.0691 21.9236 18.0691 21.1622 17.3761 19.5183 L15.9553 16.144 L15.9553 16.144 Z M15.4702 14.8638 L11.486 5.38149 L7.39748 14.8638 L15.4702 14.8638 Z" transform="translate(3.0267, 3.5)" />
 </g>
</svg>
