<?xml version="1.0" encoding="UTF-8"?>
<svg width="31pt" version="1.1" xmlns="http://www.w3.org/2000/svg" height="31pt" viewBox="0 0 31 31" xmlns:xlink="http://www.w3.org/1999/xlink">
<desc>Ground symbol</desc>
<defs/>
<g fill="none" stroke="black" stroke-width="1" fill-rule="evenodd" stroke-linecap="square" stroke-linejoin="bevel" >

<g fill="none" stroke="#000000" stroke-opacity="1" stroke-width="1" stroke-linecap="square" stroke-linejoin="bevel" transform="matrix(1,0,0,1,0,0)"
font-family="DejaVu Sans" font-size="9" font-weight="400" font-style="normal" 
>
</g>

<g fill="none" stroke="#000000" stroke-opacity="1" stroke-width="1" stroke-linecap="square" stroke-linejoin="bevel" transform="matrix(0.979167,0,0,0.973684,10.7708,2.92105)"
font-family="DejaVu Sans" font-size="9" font-weight="400" font-style="normal" 
>
</g>

<g fill="none" stroke="#0000ff" stroke-opacity="1" stroke-width="1" stroke-linecap="square" stroke-linejoin="bevel" transform="matrix(0.979167,0,0,0.973684,10.7708,2.92105)"
font-family="DejaVu Sans" font-size="9" font-weight="400" font-style="normal" 
>
<path vector-effect="none" fill-rule="evenodd" d="M0,0 L0,10 M-10,10 L10,10 M-5,15 L5,15 M-2,20 L2,20"/>
</g>

<g fill="none" stroke="#000000" stroke-opacity="1" stroke-width="1" stroke-linecap="square" stroke-linejoin="bevel" transform="matrix(0.979167,0,0,0.973684,10.7708,2.92105)"
font-family="DejaVu Sans" font-size="9" font-weight="400" font-style="normal" 
>
</g>

<g fill="none" stroke="#000000" stroke-opacity="1" stroke-width="1" stroke-linecap="square" stroke-linejoin="bevel" transform="matrix(0.979167,0,0,0.973684,10.7708,2.92105)"
font-family="DejaVu Sans" font-size="9" font-weight="400" font-style="normal" 
>
</g>

<g fill="none" stroke="#800000" stroke-opacity="1" stroke-width="1" stroke-linecap="square" stroke-linejoin="bevel" transform="matrix(0.979167,0,0,0.973684,10.7708,2.92105)"
font-family="DejaVu Sans" font-size="9" font-weight="400" font-style="normal" 
>
<path vector-effect="non-scaling-stroke" fill-rule="evenodd" d="M3,0 C3,1.65685 1.65685,3 0,3 C-1.65685,3 -3,1.65685 -3,0 C-3,-1.65685 -1.65685,-3 0,-3 C1.65685,-3 3,-1.65685 3,0 "/>
</g>

<g fill="none" stroke="#000000" stroke-opacity="1" stroke-width="1" stroke-linecap="square" stroke-linejoin="bevel" transform="matrix(0.979167,0,0,0.973684,10.7708,2.92105)"
font-family="DejaVu Sans" font-size="9" font-weight="400" font-style="normal" 
>
</g>

<g fill="none" stroke="#000000" stroke-opacity="1" stroke-width="1" stroke-linecap="square" stroke-linejoin="bevel" transform="matrix(1,0,0,1,0,0)"
font-family="DejaVu Sans" font-size="9" font-weight="400" font-style="normal" 
>
</g>
</g>
</svg>
