<?xml version="1.0" encoding="UTF-8"?>
<svg width="54.6806mm" version="1.1" xmlns="http://www.w3.org/2000/svg" height="14.8167mm" viewBox="0 0 54.6806mm 40.8167mm" xmlns:xlink="http://www.w3.org/1999/xlink">    
<desc>Simulation symbol</desc>
<defs/>
<g fill="none" stroke="black" stroke-width="1" fill-rule="evenodd" stroke-linecap="square" stroke-linejoin="bevel" >

<g fill="none" stroke="#000000" stroke-opacity="1" stroke-width="1" stroke-linecap="square" stroke-linejoin="bevel" transform="matrix(1,0,0,1,0,0)"
font-family="DejaVu Sans" font-size="9" font-weight="400" font-style="normal" 
>
</g>

<g fill="none" stroke="#000000" stroke-opacity="1" stroke-width="1" stroke-linecap="square" stroke-linejoin="bevel" transform="matrix(0.99359,0,0,0.976744,0.99359,0.976744)"
font-family="DejaVu Sans" font-size="9" font-weight="400" font-style="normal" 
>
</g>

<g fill="none" stroke="#0000ff" stroke-opacity="1" stroke-width="1" stroke-linecap="square" stroke-linejoin="bevel" transform="matrix(0.99359,0,0,0.976744,0.99359,0.976744)"
font-family="DejaVu Sans" font-size="9" font-weight="400" font-style="normal" 
>
<path vector-effect="none" fill-rule="evenodd" d="M0,5 C0,2.23858 2.23858,0 5,0 L35,0 C37.7614,0 40,2.23858 40,5 L40,35 C40,37.7614 37.7614,40 35,40 L5,40 C2.23858,40 0,37.7614 0,35 L0,5 M5,7.5 C5,6.11929 6.07452,5 7.4,5 L32.6,5 C33.9255,5 35,6.11929 35,7.5 L35,22.5 C35,23.8807 33.9255,25 32.6,25 L7.4,25 C6.07452,25 5,23.8807 5,22.5 L5,7.5 M10,15 L30,15 M10,15 C10,12.2386 12.2386,10 15,10 C17.7614,10 20,12.2386 20,15 C20,17.7614 22.2386,20 25,20 C27.7614,20 30,17.7614 30,15 "/>
</g>

<g fill="none" stroke="#000000" stroke-opacity="1" stroke-width="1" stroke-linecap="square" stroke-linejoin="bevel" transform="matrix(0.99359,0,0,0.976744,0.99359,0.976744)"
font-family="DejaVu Sans" font-size="9" font-weight="400" font-style="normal" 
>
</g>

<g fill="none" stroke="#000000" stroke-opacity="1" stroke-width="1" stroke-linecap="square" stroke-linejoin="bevel" transform="matrix(0.99359,0,0,0.976744,45.7051,0.976744)"
font-family="DejaVu Sans" font-size="9" font-weight="400" font-style="normal" 
>
</g>

<g fill="none" stroke="#000000" stroke-opacity="1" stroke-width="1" stroke-linecap="square" stroke-linejoin="bevel" transform="matrix(0.99359,0,0,0.976744,45.7051,0.976744)"
font-family="DejaVu Sans" font-size="9" font-weight="400" font-style="normal" 
>
</g>

<g fill="none" stroke="#000000" stroke-opacity="1" stroke-width="1" stroke-linecap="square" stroke-linejoin="bevel" transform="matrix(1,0,0,1,0,0)"
font-family="DejaVu Sans" font-size="9" font-weight="400" font-style="normal" 
>
</g>
</g>
</svg>
