<?xml version="1.0" encoding="UTF-8" standalone="no"?>
<svg width="10.9361mm" height="10.9361mm" xmlns="http://www.w3.org/2000/svg" xmlns:xlink="http://www.w3.org/1999/xlink"  version="1.2" baseProfile="tiny">
<desc>Port symbol</desc>
<defs>
</defs>
<g fill="none" stroke="black" stroke-width="1" fill-rule="evenodd" stroke-linecap="square" stroke-linejoin="bevel" >

<g fill="none" stroke="#000000" stroke-opacity="1" stroke-width="1" stroke-linecap="square" stroke-linejoin="bevel" transform="matrix(1,0,0,1,0,0)"
font-family="DejaVu Sans" font-size="9" font-weight="400" font-style="normal" 
>
</g>

<g fill="none" stroke="#000000" stroke-opacity="1" stroke-width="1" stroke-linecap="square" stroke-linejoin="bevel" transform="matrix(1.34783,0,0,1.34783,14.8261,14.8261)"
font-family="DejaVu Sans" font-size="9" font-weight="400" font-style="normal" 
>
</g>

<g fill="none" stroke="#0000ff" stroke-opacity="1" stroke-width="1" stroke-linecap="square" stroke-linejoin="bevel" transform="matrix(1.34783,0,0,1.34783,14.8261,14.8261)"
font-family="DejaVu Sans" font-size="9" font-weight="400" font-style="normal" 
>
<path vector-effect="none" fill-rule="evenodd" d="M-10,-7.5 C-10,-8.88071 -8.88071,-10 -7.5,-10 L7.5,-10 C8.88071,-10 10,-8.88071 10,-7.5 L10,7.5 C10,8.88071 8.88071,10 7.5,10 L-7.5,10 C-8.88071,10 -10,8.88071 -10,7.5 L-10,-7.5"/>
</g>

<g fill="none" stroke="#000000" stroke-opacity="1" stroke-width="1" stroke-linecap="square" stroke-linejoin="bevel" transform="matrix(1.34783,0,0,1.34783,14.8261,14.8261)"
font-family="DejaVu Sans" font-size="9" font-weight="400" font-style="normal" 
>
</g>

<g fill="none" stroke="#000000" stroke-opacity="1" stroke-width="1" stroke-linecap="square" stroke-linejoin="bevel" transform="matrix(1.34783,0,0,1.34783,1.34783,28.3043)"
font-family="DejaVu Sans" font-size="9" font-weight="400" font-style="normal" 
>
</g>

<g fill="none" stroke="#000000" stroke-opacity="1" stroke-width="1" stroke-linecap="square" stroke-linejoin="bevel" transform="matrix(1.34783,0,0,1.34783,1.34783,28.3043)"
font-family="DejaVu Sans" font-size="9" font-weight="400" font-style="normal" 
>
</g>

<g fill="none" stroke="#000000" stroke-opacity="1" stroke-width="1" stroke-linecap="square" stroke-linejoin="bevel" transform="matrix(1.34783,0,0,1.34783,14.8261,14.8261)"
font-family="DejaVu Sans" font-size="9" font-weight="400" font-style="normal" 
>
</g>

<g fill="none" stroke="#800000" stroke-opacity="1" stroke-width="1" stroke-linecap="square" stroke-linejoin="bevel" transform="matrix(1.34783,0,0,1.34783,14.8261,14.8261)"
font-family="DejaVu Sans" font-size="9" font-weight="400" font-style="normal" 
>
<path vector-effect="non-scaling-stroke" fill-rule="evenodd" d="M3,0 C3,1.65685 1.65685,3 0,3 C-1.65685,3 -3,1.65685 -3,0 C-3,-1.65685 -1.65685,-3 0,-3 C1.65685,-3 3,-1.65685 3,0 "/>
</g>

<g fill="none" stroke="#000000" stroke-opacity="1" stroke-width="1" stroke-linecap="square" stroke-linejoin="bevel" transform="matrix(1.34783,0,0,1.34783,14.8261,14.8261)"
font-family="DejaVu Sans" font-size="9" font-weight="400" font-style="normal" 
>
</g>

<g fill="none" stroke="#000000" stroke-opacity="1" stroke-width="1" stroke-linecap="square" stroke-linejoin="bevel" transform="matrix(1,0,0,1,0,0)"
font-family="DejaVu Sans" font-size="9" font-weight="400" font-style="normal" 
>
</g>
</g>
</svg>
